<svg width="49" height="48" viewBox="0 0 49 48" fill="none" xmlns="http://www.w3.org/2000/svg">
    <path fill-rule="evenodd" clip-rule="evenodd" d="M3.87 3.37C0.5 6.75 0.5 12.17 0.5 23.04V24.96C0.5 35.82 0.5 41.26 3.87 44.63C7.25 48 12.67 48 23.54 48H25.46C36.32 48 41.76 48 45.13 44.63C48.5 41.25 48.5 35.83 48.5 24.96V23.04C48.5 12.18 48.5 6.74 45.13 3.37C41.75 0 36.33 0 25.46 0H23.54C12.68 0 7.24 0 3.87 3.37ZM8.61 14.67C8.86 27.15 15.43 34.67 26.26 34.67H26.89V27.52C30.84 27.92 33.78 30.87 34.98 34.67H40.67C40.1087 32.529 39.1039 30.5298 37.7206 28.8019C36.3373 27.0741 34.6063 25.6561 32.64 24.64C35.12 23.15 38.64 19.55 39.47 14.67H34.29C33.21 18.64 29.98 22.24 26.89 22.58V14.67H21.63V28.52C18.43 27.72 14.26 23.84 14.09 14.67H8.61Z" fill="white"/>
</svg>